<?xml version="1.0" encoding="utf-8"?>
<!-- Generator: Adobe Illustrator 19.1.0, SVG Export Plug-In . SVG Version: 6.00 Build 0)  -->
<svg version="1.1" id="Layer_1" xmlns="http://www.w3.org/2000/svg" xmlns:xlink="http://www.w3.org/1999/xlink" x="0px" y="0px"
	 viewBox="0 0 500 500" style="enable-background:new 0 0 500 500;" xml:space="preserve">
<style type="text/css">
	.st0{fill:#FFF3CC;}
	.st1{fill:#262527;}
</style>
<rect class="st0" width="500" height="500"/>
<g>
	<path class="st1" d="M101.1,345.7H40.5v-216h60.6V345.7z M160.1,291.3H60.8v-54.5h92.5c10.7,0,18.4-1.6,23-4.8
		c4.6-3.2,6.9-10.4,6.9-21.6c0-11-2.3-18.1-6.9-21.3c-4.6-3.2-12.3-4.8-23-4.8H60.8v-54.5h99.3c17.2,0,32,3.2,44.5,9.5
		c12.5,6.3,22.1,15.5,28.8,27.4c6.8,11.9,10.2,26.5,10.2,43.7c0,17-3.4,31.5-10.2,43.7c-6.8,12.1-16.4,21.4-28.8,27.7
		C192.1,288.1,177.3,291.3,160.1,291.3z"/>
	<path class="st1" d="M317,345.7h-60.6v-216H317V345.7z M376,291.3h-99.3v-54.5h92.5c10.7,0,18.4-1.6,23-4.8
		c4.6-3.2,6.9-10.4,6.9-21.6c0-11-2.3-18.1-6.9-21.3c-4.6-3.2-12.3-4.8-23-4.8h-92.5v-54.5H376c17.2,0,32,3.2,44.5,9.5
		c12.5,6.3,22.1,15.5,28.8,27.4c6.8,11.9,10.2,26.5,10.2,43.7c0,17-3.4,31.5-10.2,43.7c-6.8,12.1-16.4,21.4-28.8,27.7
		C408,288.1,393.2,291.3,376,291.3z"/>
</g>
</svg>
